<svg width="65" height="65" viewBox="0 0 65 65" fill="none" xmlns="http://www.w3.org/2000/svg">
<rect width="65" height="65" fill="white"/>
<rect x="1.5" y="12.5" width="62" height="26" rx="1.5" stroke="#050A30" stroke-width="3"/>
<path d="M11.0234 28.5H54.8772C55.3835 28.5 55.8556 28.7554 56.1326 29.1791L60.7096 36.1791C61.3619 37.1768 60.6461 38.5 59.4541 38.5H5.90798C4.68048 38.5 3.97265 37.106 4.69689 36.115L9.81228 29.115C10.0947 28.7285 10.5447 28.5 11.0234 28.5Z" stroke="#050A30" stroke-width="3"/>
<line x1="8" y1="17" x2="8" y2="22" stroke="#24387E" stroke-width="2" stroke-linecap="round"/>
<line x1="11" y1="19" x2="11" y2="22" stroke="#24387E" stroke-width="2" stroke-linecap="round"/>
<path d="M21 45C21 45 27.3565 48.7339 25.5 50.5C23.6435 52.2661 21.9177 53.3422 21.5 55.5C21.0823 57.6578 25.5 60.5 25.5 60.5" stroke="#24387E" stroke-width="3" stroke-linecap="round"/>
<path d="M31 45C31 45 37.3565 48.7339 35.5 50.5C33.6435 52.2661 31.9177 53.3422 31.5 55.5C31.0823 57.6578 35.5 60.5 35.5 60.5" stroke="#24387E" stroke-width="3" stroke-linecap="round"/>
<path d="M41 45C41 45 47.3565 48.7339 45.5 50.5C43.6435 52.2661 41.9177 53.3422 41.5 55.5C41.0823 57.6578 45.5 60.5 45.5 60.5" stroke="#24387E" stroke-width="3" stroke-linecap="round"/>
</svg>
