<svg width="48" height="48" viewBox="0 0 48 48" fill="none" xmlns="http://www.w3.org/2000/svg">
<g clip-path="url(#clip0_7_27)">
<rect width="48" height="48" fill="white"/>
<path d="M43.75 42.5C43.75 42.5587 43.6777 42.9579 42.6635 43.5713C41.7251 44.1388 40.284 44.6943 38.393 45.1781C34.6299 46.1407 29.3639 46.75 23.5 46.75C17.6361 46.75 12.3701 46.1407 8.607 45.1781C6.71599 44.6943 5.27488 44.1388 4.33648 43.5713C3.32232 42.9579 3.25 42.5587 3.25 42.5C3.25 42.4413 3.32232 42.0421 4.33648 41.4287C5.27488 40.8612 6.71599 40.3057 8.607 39.8219C12.3701 38.8593 17.6361 38.25 23.5 38.25C29.3639 38.25 34.6299 38.8593 38.393 39.8219C40.284 40.3057 41.7251 40.8612 42.6635 41.4287C43.6777 42.0421 43.75 42.4413 43.75 42.5Z" stroke="#050A30" stroke-width="2.5"/>
<path d="M30.75 13.2121C30.75 15.6076 29.7697 22.691 28.1508 29.2128C27.3435 32.465 26.3968 35.4951 25.371 37.6876C24.8557 38.7891 24.3509 39.6119 23.8803 40.1404C23.3933 40.6873 23.0994 40.75 23 40.75C22.9006 40.75 22.6067 40.6873 22.1197 40.1404C21.6491 39.6119 21.1443 38.7891 20.629 37.6876C19.6032 35.4951 18.6565 32.465 17.8492 29.2128C16.2303 22.691 15.25 15.6076 15.25 13.2121C15.25 8.78715 18.7471 5.25 23 5.25C27.2529 5.25 30.75 8.78715 30.75 13.2121Z" stroke="#050A30" stroke-width="2.5"/>
<path d="M25 14.6364C25 16.6447 24.1046 26 23 26C21.8954 26 21 16.6447 21 14.6364C21 12.6281 21.8954 11 23 11C24.1046 11 25 12.6281 25 14.6364Z" stroke="#24387E" stroke-width="2" stroke-linecap="round"/>
</g>
<defs>
<clipPath id="clip0_7_27">
<rect width="48" height="48" fill="white"/>
</clipPath>
</defs>
</svg>
