<svg width="65" height="65" viewBox="0 0 65 65" fill="none" xmlns="http://www.w3.org/2000/svg">
<g clip-path="url(#clip0_11_108)">
<rect width="65" height="65" fill="white"/>
<g filter="url(#filter0_d_11_108)">
<rect x="43.5" y="40.5" width="5" height="23" rx="1.5" stroke="#24387E" stroke-width="3" shape-rendering="crispEdges"/>
</g>
<g filter="url(#filter1_d_11_108)">
<rect x="3.5" y="40.5" width="5" height="23" rx="1.5" stroke="#24387E" stroke-width="3" shape-rendering="crispEdges"/>
</g>
<g filter="url(#filter2_d_11_108)">
<rect x="12.5" y="30.5" width="5" height="23" rx="1.5" stroke="#24387E" stroke-width="3" shape-rendering="crispEdges"/>
</g>
<g filter="url(#filter3_d_11_108)">
<rect x="53.5" y="30.5" width="5" height="23" rx="1.5" stroke="#24387E" stroke-width="3" shape-rendering="crispEdges"/>
</g>
<path d="M6.97864 28.2963C7.23895 27.8063 7.74847 27.5 8.30331 27.5H58.5431C59.6078 27.5 60.3335 28.5782 59.9328 29.5646L55.8703 39.5646L57.26 40.1291L55.8703 39.5646C55.6406 40.1301 55.0911 40.5 54.4806 40.5H2.99082C1.8595 40.5 1.13538 39.2953 1.66614 38.2963L6.97864 28.2963Z" fill="white" stroke="#050A30" stroke-width="3"/>
<line x1="15" y1="26" x2="15" y2="33" stroke="#24387E" stroke-width="2" stroke-linecap="round"/>
<line x1="28" y1="26" x2="28" y2="33" stroke="#24387E" stroke-width="2" stroke-linecap="round"/>
<path d="M11 16H19V23C19 24.1046 18.1046 25 17 25H13C11.8954 25 11 24.1046 11 23V16Z" stroke="#24387E" stroke-width="2"/>
<path d="M24 16H32V23C32 24.1046 31.1046 25 30 25H26C24.8954 25 24 24.1046 24 23V16Z" stroke="#24387E" stroke-width="2"/>
</g>
<defs>
<filter id="filter0_d_11_108" x="38" y="39" width="16" height="34" filterUnits="userSpaceOnUse" color-interpolation-filters="sRGB">
<feFlood flood-opacity="0" result="BackgroundImageFix"/>
<feColorMatrix in="SourceAlpha" type="matrix" values="0 0 0 0 0 0 0 0 0 0 0 0 0 0 0 0 0 0 127 0" result="hardAlpha"/>
<feOffset dy="4"/>
<feGaussianBlur stdDeviation="2"/>
<feComposite in2="hardAlpha" operator="out"/>
<feColorMatrix type="matrix" values="0 0 0 0 0 0 0 0 0 0 0 0 0 0 0 0 0 0 0.25 0"/>
<feBlend mode="normal" in2="BackgroundImageFix" result="effect1_dropShadow_11_108"/>
<feBlend mode="normal" in="SourceGraphic" in2="effect1_dropShadow_11_108" result="shape"/>
</filter>
<filter id="filter1_d_11_108" x="-2" y="39" width="16" height="34" filterUnits="userSpaceOnUse" color-interpolation-filters="sRGB">
<feFlood flood-opacity="0" result="BackgroundImageFix"/>
<feColorMatrix in="SourceAlpha" type="matrix" values="0 0 0 0 0 0 0 0 0 0 0 0 0 0 0 0 0 0 127 0" result="hardAlpha"/>
<feOffset dy="4"/>
<feGaussianBlur stdDeviation="2"/>
<feComposite in2="hardAlpha" operator="out"/>
<feColorMatrix type="matrix" values="0 0 0 0 0 0 0 0 0 0 0 0 0 0 0 0 0 0 0.25 0"/>
<feBlend mode="normal" in2="BackgroundImageFix" result="effect1_dropShadow_11_108"/>
<feBlend mode="normal" in="SourceGraphic" in2="effect1_dropShadow_11_108" result="shape"/>
</filter>
<filter id="filter2_d_11_108" x="7" y="29" width="16" height="34" filterUnits="userSpaceOnUse" color-interpolation-filters="sRGB">
<feFlood flood-opacity="0" result="BackgroundImageFix"/>
<feColorMatrix in="SourceAlpha" type="matrix" values="0 0 0 0 0 0 0 0 0 0 0 0 0 0 0 0 0 0 127 0" result="hardAlpha"/>
<feOffset dy="4"/>
<feGaussianBlur stdDeviation="2"/>
<feComposite in2="hardAlpha" operator="out"/>
<feColorMatrix type="matrix" values="0 0 0 0 0 0 0 0 0 0 0 0 0 0 0 0 0 0 0.25 0"/>
<feBlend mode="normal" in2="BackgroundImageFix" result="effect1_dropShadow_11_108"/>
<feBlend mode="normal" in="SourceGraphic" in2="effect1_dropShadow_11_108" result="shape"/>
</filter>
<filter id="filter3_d_11_108" x="48" y="29" width="16" height="34" filterUnits="userSpaceOnUse" color-interpolation-filters="sRGB">
<feFlood flood-opacity="0" result="BackgroundImageFix"/>
<feColorMatrix in="SourceAlpha" type="matrix" values="0 0 0 0 0 0 0 0 0 0 0 0 0 0 0 0 0 0 127 0" result="hardAlpha"/>
<feOffset dy="4"/>
<feGaussianBlur stdDeviation="2"/>
<feComposite in2="hardAlpha" operator="out"/>
<feColorMatrix type="matrix" values="0 0 0 0 0 0 0 0 0 0 0 0 0 0 0 0 0 0 0.25 0"/>
<feBlend mode="normal" in2="BackgroundImageFix" result="effect1_dropShadow_11_108"/>
<feBlend mode="normal" in="SourceGraphic" in2="effect1_dropShadow_11_108" result="shape"/>
</filter>
<clipPath id="clip0_11_108">
<rect width="65" height="65" fill="white"/>
</clipPath>
</defs>
</svg>
