<svg width="65" height="65" viewBox="0 0 65 65" fill="none" xmlns="http://www.w3.org/2000/svg">
<rect width="65" height="65" fill="white"/>
<path d="M16.5 42C16.5 40.6193 17.6193 39.5 19 39.5H44C45.3807 39.5 46.5 40.6193 46.5 42V51C46.5 52.3807 45.3807 53.5 44 53.5H19C17.6193 53.5 16.5 52.3807 16.5 51V42Z" stroke="#050A30" stroke-width="3"/>
<line x1="21.5" y1="55.5" x2="21.5" y2="63.5" stroke="#050A30" stroke-width="3" stroke-linecap="round"/>
<line x1="41.5" y1="55.5" x2="41.5" y2="63.5" stroke="#050A30" stroke-width="3" stroke-linecap="round"/>
<line x1="31.5" y1="19.5" x2="31.5" y2="39.5" stroke="#050A30" stroke-width="3" stroke-linecap="round"/>
<path d="M22.589 7.21054C22.8996 6.35302 23.0975 5.81151 23.2876 5.4129C23.4645 5.04193 23.5812 4.91495 23.6666 4.84427C23.7279 4.79355 23.7931 4.7478 23.8617 4.70743L23.1112 3.43297L23.8617 4.70743C23.9572 4.65117 24.1163 4.58478 24.5254 4.54471C24.9649 4.50166 25.5414 4.5 26.4534 4.5H37.5466C38.4586 4.5 39.0351 4.50166 39.4746 4.54471C39.8837 4.58478 40.0428 4.65117 40.1383 4.70743C40.2069 4.74779 40.2721 4.79355 40.3334 4.84427L41.2809 3.69901L40.3334 4.84427C40.4188 4.91494 40.5354 5.04193 40.7124 5.4129C40.9025 5.81152 41.1004 6.35302 41.411 7.21055L43.8663 13.9905C44.4538 15.6131 44.8417 16.6928 45.0245 17.5143C45.2028 18.3153 45.1138 18.5788 45.0485 18.702C44.9901 18.8123 44.9181 18.9149 44.8343 19.0074L45.9457 20.0148L44.8343 19.0074C44.7407 19.1107 44.5233 19.2841 43.7094 19.3892C42.8748 19.497 41.7275 19.5 40.0019 19.5H23.9981C22.2725 19.5 21.1252 19.497 20.2906 19.3892C19.4767 19.2841 19.2593 19.1107 19.1657 19.0074L18.0543 20.0148L19.1657 19.0074C19.0819 18.9149 19.0099 18.8123 18.9515 18.702L17.7388 19.3441L18.9515 18.7019C18.8862 18.5788 18.7972 18.3153 18.9755 17.5143C19.1583 16.6928 19.5462 15.6131 20.1337 13.9905L22.589 7.21054Z" stroke="#24387E" stroke-width="3"/>
<line x1="40.5" y1="20.5" x2="40.5" y2="29.5" stroke="#24387E" stroke-linecap="round"/>
<rect x="38.5" y="29.5" width="4" height="3" stroke="#24387E"/>
</svg>
