<svg width="48" height="48" viewBox="0 0 48 48" fill="none" xmlns="http://www.w3.org/2000/svg">
<g clip-path="url(#clip0_7_43)">
<rect width="48" height="48" fill="white"/>
<mask id="path-1-inside-1_7_43" fill="white">
<path fill-rule="evenodd" clip-rule="evenodd" d="M29.5516 7H17.7309L14.9728 12.7872H8C3.58172 12.7872 0 16.369 0 20.7872V33C0 37.4183 3.58173 41 8.00001 41H40.0213C44.4396 41 48.0213 37.4183 48.0213 33V20.7872C48.0213 16.369 44.4395 12.7872 40.0213 12.7872H32.7037L29.5516 7Z"/>
</mask>
<path d="M17.7309 7V4.5H16.153L15.4741 5.92443L17.7309 7ZM29.5516 7L31.747 5.80419L31.0367 4.5H29.5516V7ZM14.9728 12.7872V15.2872H16.5507L17.2296 13.8628L14.9728 12.7872ZM32.7037 12.7872L30.5083 13.983L31.2186 15.2872H32.7037V12.7872ZM17.7309 9.5H29.5516V4.5H17.7309V9.5ZM17.2296 13.8628L19.9877 8.07557L15.4741 5.92443L12.716 11.7117L17.2296 13.8628ZM8 15.2872H14.9728V10.2872H8V15.2872ZM2.5 20.7872C2.5 17.7497 4.96243 15.2872 8 15.2872V10.2872C2.20101 10.2872 -2.5 14.9882 -2.5 20.7872H2.5ZM2.5 33V20.7872H-2.5V33H2.5ZM8.00001 38.5C4.96244 38.5 2.5 36.0376 2.5 33H-2.5C-2.5 38.799 2.20102 43.5 8.00001 43.5V38.5ZM40.0213 38.5H8.00001V43.5H40.0213V38.5ZM45.5213 33C45.5213 36.0376 43.0588 38.5 40.0213 38.5V43.5C45.8203 43.5 50.5213 38.799 50.5213 33H45.5213ZM45.5213 20.7872V33H50.5213V20.7872H45.5213ZM40.0213 15.2872C43.0588 15.2872 45.5213 17.7497 45.5213 20.7872H50.5213C50.5213 14.9882 45.8203 10.2872 40.0213 10.2872V15.2872ZM32.7037 15.2872H40.0213V10.2872H32.7037V15.2872ZM27.3561 8.19581L30.5083 13.983L34.8992 11.5914L31.747 5.80419L27.3561 8.19581Z" fill="#050A30" mask="url(#path-1-inside-1_7_43)"/>
<path d="M31.75 25.5C31.75 29.4377 28.3485 32.75 24 32.75C19.6515 32.75 16.25 29.4377 16.25 25.5C16.25 21.5623 19.6515 18.25 24 18.25C28.3485 18.25 31.75 21.5623 31.75 25.5Z" stroke="#24387E" stroke-width="2.5"/>
<circle cx="39.5" cy="19.5" r="2" fill="#24387E" stroke="#24387E"/>
</g>
<defs>
<clipPath id="clip0_7_43">
<rect width="48" height="48" fill="white"/>
</clipPath>
</defs>
</svg>
